PathFileType	4	(X/Y/Z)	S01_0005_Gait_markers.trc
DataRate	CameraRate	NumFrames	NumMarkers	Units	OrigDataRate	OrigDataStartFrame	OrigNumFrames
250.000000	250.000000	4	54	mm	250.000000	202	324
Frame#	Time	HEAD_ANT			R_HEAD			L_HEAD			C7			R_BACK			L_BACK			STERNUM			R_ACROMION			R_HUM_PROX			R_HUM_ANT			R_HUM_POST			R_ELBOW_LAT			R_ELBOW_MED			R_FOREARM			R_WIRST_LAT			R_WRITS_MED			R_HAND			L_ACROMION			L_HUM_PROX			L_HUM_ANT			L_HUM_POST			L_ELBOW_LAT			L_ELBOW_MED			L_FOREARM			L_WRIST_LAT			L_WIRST_MED			L_HAND			R_ILIAC			SACRUM			L_ILIAC			R_GTROCH			R_THIGH__1			R_THIGH_2			R_THIGH_3			R_THIGH_4			R_SHANK_1			R_SHANK_2			R_SHANK_3			R_SHANK_4			R_HEEL			R_FOOT_LAT			R_FOOT_MED			L_GTROCH			L_THIGH_1			L_THIGH_2			L_THIGH_3			L_THIGH_4			L_SHANK_1			L_SHANK_2			L_SHANK_3			L_SHANK_4			L_HEEL			L_FOOT_LAT			L_FOOT_MED			
		X1	Y1	Z1	X2	Y2	Z2	X3	Y3	Z3	X4	Y4	Z4	X5	Y5	Z5	X6	Y6	Z6	X7	Y7	Z7	X8	Y8	Z8	X9	Y9	Z9	X10	Y10	Z10	X11	Y11	Z11	X12	Y12	Z12	X13	Y13	Z13	X14	Y14	Z14	X15	Y15	Z15	X16	Y16	Z16	X17	Y17	Z17	X18	Y18	Z18	X19	Y19	Z19	X20	Y20	Z20	X21	Y21	Z21	X22	Y22	Z22	X23	Y23	Z23	X24	Y24	Z24	X25	Y25	Z25	X26	Y26	Z26	X27	Y27	Z27	X28	Y28	Z28	X29	Y29	Z29	X30	Y30	Z30	X31	Y31	Z31	X32	Y32	Z32	X33	Y33	Z33	X34	Y34	Z34	X35	Y35	Z35	X36	Y36	Z36	X37	Y37	Z37	X38	Y38	Z38	X39	Y39	Z39	X40	Y40	Z40	X41	Y41	Z41	X42	Y42	Z42	X43	Y43	Z43	X44	Y44	Z44	X45	Y45	Z45	X46	Y46	Z46	X47	Y47	Z47	X48	Y48	Z48	X49	Y49	Z49	X50	Y50	Z50	X51	Y51	Z51	X52	Y52	Z52	X53	Y53	Z53	X54	Y54	Z54	

203	0.8080000000000001	1328.700561523438	1743.45166015625	-346.1259765624996	1271.215087890625	1693.100830078125	-267.7108459472652	1273.117797851562	1693.373901367188	-416.838226318359	1138.3212890625	1520.998657226562	-339.8650207519528	1067.670654296875	1328.172119140625	-261.7017517089841	1065.10546875	1325.509887695312	-402.1872558593747	1314.856323242188	1358.322631835938	-335.8203430175778	1223.047973632812	1477.022827148438	-167.6098937988278	1197.733032226562	1318.697509765625	-72.17289733886689	1258.337036132812	1231.979248046875	-80.4808273315427	1139.388793945312	1235.852172851562	-48.98958969116183	1186.848266601562	1128.22314453125	-52.10712051391577	1147.583984375	1125.017578125	-125.2397537231443	1286.141967773438	945.6673583984375	-72.44127655029276	1313.942138671875	880.041015625	-119.8079681396482	1258.45751953125	856.24609375	-64.47325897216778	1333.369140625	792.3937377929688	-64.82194519042952	1217.087280273438	1470.12255859375	-507.2711791992184	1189.940795898438	1301.589965820313	-596.9196777343747	1250.06640625	1219.25244140625	-596.654602050781	1128.63427734375	1225.551391601563	-620.955871582031	1185.4658203125	1117.755737304688	-625.070861816406	1134.295654296875	1115.405517578125	-567.5180053710935	1281.436401367188	939.7573852539064	-611.5355834960935	1306.055786132812	875.2911987304689	-558.2177734374998	1265.499633789062	860.1995239257814	-625.4391479492185	1335.590576171875	796.7282714843751	-609.037414550781	1210.237426757812	1068.102416992188	-159.4418334960935	1087.075927734375	1041.914184570312	-331.7524414062498	1206.6513671875	1069.658935546875	-505.8736572265623	1163.944458007812	917.5467529296875	-147.9890136718748	1227.503540039062	640.90966796875	-161.3360900878905	1282.732421875	660.5967407226562	-152.8145599365233	1295.23388671875	556.3173828125	-176.6029205322264	1230.916748046875	560.0281372070312	-175.2172241210936	1113.987548828125	406.1911621093751	-166.1574707031249	1139.3779296875	352.9201660156251	-177.871109008789	1076.41796875	295.0497741699219	-195.4675140380859	1035.903686523438	343.9582519531251	-185.7567291259765	866.6502685546875	236.6504364013672	-271.8157653808593	932.5497436523438	90.9558486938477	-183.42138671875	984.1437377929688	63.07813644409185	-267.4200439453125	1186.051513671875	958.2552490234376	-512.0362548828123	1323.000122070312	680.4981079101564	-486.5140075683592	1268.629150390625	690.5026245117189	-507.686798095703	1267.010009765625	588.5750122070314	-473.193389892578	1328.721801757812	601.9961547851564	-460.2514343261718	1295.750122070312	323.9771118164064	-451.8433837890624	1237.550537109375	307.5090332031251	-459.5993957519531	1226.196411132812	222.7129669189454	-441.5249938964843	1288.9287109375	223.7684631347657	-425.3391418457031	1162.38427734375	42.55929946899423	-368.2870788574219	1338.76416015625	20.70580101013193	-438.4187927246094	1374.966186523438	26.05667495727547	-329.6640319824219	
204	0.8120000000000001	1334.354125976562	1744.220581054688	-346.2114868164059	1276.657348632812	1693.97900390625	-267.8015136718746	1278.6455078125	1694.366821289062	-416.9497070312496	1143.65576171875	1522.052612304688	-340.1065673828122	1073.289306640625	1328.953735351562	-262.1307373046872	1070.605102539062	1326.542114257812	-402.5482177734372	1320.231079101562	1359.402465820312	-335.7023925781247	1228.13427734375	1478.081420898438	-167.6766815185543	1202.44873046875	1319.63037109375	-72.05382537841767	1263.070190429688	1232.932495117188	-80.2386169433591	1144.172241210938	1236.966430664062	-49.21947860717746	1191.536987304688	1129.371459960938	-52.12518692016577	1152.433959960938	1126.0458984375	-125.3450546264646	1290.361450195312	946.47802734375	-72.01539611816385	1318.103637695312	880.5617065429688	-119.3447113037107	1262.5263671875	857.2643432617188	-63.89758300781231	1337.113403320312	792.9826049804688	-64.29058074951155	1222.452270507812	1471.271850585938	-507.2514038085934	1195.94970703125	1302.659301757813	-597.1666870117184	1256.2080078125	1220.45703125	-596.8861083984373	1134.682861328125	1226.471069335938	-621.1342773437498	1191.546020507812	1118.786987304688	-625.4274291992185	1140.575439453125	1116.30224609375	-567.8043212890623	1288.298950195312	941.0756835937501	-611.4246826171873	1312.983154296875	876.8178100585939	-557.859924316406	1272.81591796875	861.5527343750001	-625.3560791015623	1342.913818359375	798.4392089843751	-608.8865966796873	1216.112915039062	1069.598388671875	-159.9073028564451	1092.4599609375	1043.076416015625	-332.1147460937498	1212.395141601562	1070.850463867188	-506.0518493652341	1169.997680664062	918.7318725585938	-147.9588775634764	1236.014892578125	642.2009887695312	-161.4323425292967	1291.21923828125	661.7532348632812	-153.0641326904295	1304.670776367188	557.84228515625	-176.8777770996093	1240.383666992188	561.2467651367188	-175.3039245605468	1124.243530273438	406.7527160644532	-166.8500061035155	1150.113891601562	353.5652770996094	-178.4562530517577	1087.950439453125	294.8782653808594	-195.7926635742187	1046.769897460938	343.7284545898438	-186.2487792968749	878.5409545898438	233.9540710449219	-272.2276306152343	947.6153564453125	89.90464019775395	-183.4748840332031	999.25537109375	62.68812942504888	-267.7305908203125	1191.627563476562	958.9846191406251	-512.0139160156248	1325.928466796875	680.1377563476564	-486.567657470703	1271.612182617188	690.8923950195314	-507.7189636230467	1269.413696289062	588.7720336914064	-473.1812133789061	1331.286010742188	601.5093994140626	-459.951934814453	1296.34814453125	324.0789184570314	-451.9632568359374	1238.5947265625	307.1850585937501	-458.8117675781249	1226.571166992188	222.9639434814454	-441.4097900390624	1289.3759765625	223.7707061767579	-425.3884277343749	1162.524536132812	42.80097579956063	-368.1806640625	1338.817504882812	20.69640350341806	-438.3382873535156	1375.050659179688	26.02862167358406	-329.6784362792969	
205	0.8160000000000001	1340.042846679688	1745.074462890625	-345.4321594238277	1281.416748046875	1694.987426757812	-268.3870849609371	1283.9658203125	1695.23193359375	-416.8473510742184	1149.15087890625	1522.921630859375	-340.2233581542965	1078.605834960938	1329.762939453125	-262.2864990234372	1076.110107421875	1327.496704101562	-403.048400878906	1325.688354492188	1360.410766601562	-335.6868896484372	1233.210693359375	1479.020141601562	-167.7713775634762	1207.118286132812	1320.576904296875	-72.24783325195283	1267.747314453125	1233.842407226562	-79.94741821289035	1148.913818359375	1237.724975585938	-49.64488601684543	1195.93896484375	1130.326293945312	-52.18545150756811	1157.107299804688	1126.907836914062	-125.3473815917966	1294.730712890625	947.385498046875	-71.54814147949197	1322.299438476562	881.216552734375	-118.9312133789061	1266.450073242188	858.07177734375	-63.42926406860332	1340.939331054688	793.6233520507812	-63.67573547363263	1228.133178710938	1472.275512695312	-507.3265991210934	1201.907104492188	1303.7275390625	-597.4619140624997	1262.128295898438	1222.051635742188	-597.5892333984373	1140.564575195312	1227.251586914063	-620.514221191406	1197.9287109375	1120.012084960938	-625.5135498046873	1146.745483398438	1117.278442382813	-568.0494995117185	1295.10595703125	942.5747070312501	-611.2469482421873	1320.330078125	878.4729614257814	-557.6874389648435	1280.17578125	862.9193115234376	-624.900695800781	1350.333984375	800.1170043945314	-608.4692382812498	1222.032348632812	1071.057250976562	-160.3276214599607	1097.904418945312	1044.052978515625	-332.3537902832029	1218.006103515625	1071.930053710938	-506.0618591308591	1175.994995117188	919.8414306640625	-148.0018005371092	1245.09716796875	643.5805053710938	-161.4888916015624	1299.923461914062	663.9151611328125	-153.1665191650389	1313.89892578125	559.7219848632812	-177.2768402099608	1249.792236328125	562.3513793945312	-175.4927368164061	1135.090942382812	407.5681762695313	-167.320571899414	1160.5546875	354.4176940917969	-178.6556701660155	1099.569580078125	294.8655395507813	-195.6235351562499	1057.845825195312	343.7018737792969	-186.7433166503905	890.3689575195312	230.998031616211	-272.1742248535156	962.888671875	88.70132446289067	-183.3926544189453	1015.3359375	62.31546401977545	-266.979736328125	1196.97216796875	959.5180053710939	-511.9648742675779	1328.781616210938	679.9096069335939	-486.5585021972655	1274.63720703125	691.1754760742189	-507.6498107910155	1271.767822265625	589.0327758789064	-473.2094421386718	1333.515869140625	601.3626708984376	-459.8551635742186	1296.96142578125	324.2157287597657	-452.0694274902343	1239.147705078125	307.5092773437501	-458.6621398925781	1226.832885742188	223.1953887939454	-441.2868041992187	1289.816528320312	223.8256225585938	-425.4027099609374	1162.620361328125	43.08852005004891	-368.0330810546875	1338.834228515625	20.71610069274912	-438.3182678222656	1375.134033203125	26.02878189086922	-329.7083129882812	
206	0.8200000000000001	1345.65576171875	1745.819946289062	-345.4339904785152	1286.983276367188	1695.726806640625	-268.0737304687496	1289.45654296875	1696.16552734375	-416.7427062988277	1154.4990234375	1523.824462890625	-340.3227233886715	1084.126220703125	1330.651733398438	-262.840393066406	1081.7529296875	1328.4833984375	-403.7524108886716	1331.0029296875	1361.33544921875	-335.572326660156	1238.24951171875	1479.876953125	-167.8182220458981	1211.76953125	1321.528686523438	-72.25230407714814	1272.365356445312	1234.676025390625	-79.7024841308591	1153.427124023438	1239.024536132812	-49.74045562744113	1200.489501953125	1131.211547851562	-52.18804550170874	1161.770751953125	1128.149169921875	-125.6001968383787	1298.901977539062	948.1937866210938	-71.08037567138651	1326.48583984375	881.837890625	-118.1485366821287	1270.510986328125	858.9407958984375	-62.74608993530254	1344.729614257812	794.0911865234375	-62.90148162841779	1233.79638671875	1473.509521484375	-507.3518066406247	1207.809448242188	1304.83984375	-597.7377929687497	1268.252197265625	1222.907958984375	-597.1912841796873	1146.650268554688	1228.350341796875	-621.2371826171873	1203.97216796875	1121.126953125	-625.8059082031248	1153.078125	1118.215698242188	-568.4851074218748	1301.949829101562	943.7932739257814	-611.0980834960935	1327.456298828125	880.0157470703126	-557.5524902343748	1287.1689453125	864.2241210937501	-624.6804199218748	1357.707397460938	801.5907592773439	-608.1373291015623	1227.953979492188	1072.603149414062	-160.7790679931638	1103.385498046875	1045.10400390625	-332.6628723144529	1223.911376953125	1072.975341796875	-506.2666015624998	1182.18017578125	921.0933227539062	-147.9370727539061	1253.684936523438	644.5958862304688	-161.7404785156249	1308.2607421875	665.435791015625	-153.3772125244139	1322.615600585938	560.8580932617188	-177.7924804687499	1258.931518554688	563.6427001953125	-175.6576995849608	1145.433959960938	408.0760803222657	-167.8042602539062	1171.50244140625	354.7839355468751	-178.971710205078	1110.934814453125	295.0267944335938	-195.6710510253906	1068.85205078125	343.1540222167969	-187.0972900390624	902.4367065429688	227.9245910644532	-272.3127441406249	978.3651733398438	87.19767761230473	-183.3496704101562	1031.085205078125	61.77637100219732	-267.0136108398438	1201.950561523438	960.0477905273439	-511.940490722656	1331.736328125	679.7014160156251	-486.5699462890623	1277.675170898438	691.3737182617189	-507.6001892089842	1273.714111328125	589.4298095703126	-473.1423034667968	1335.994750976562	601.1846313476564	-459.8493041992186	1297.608276367188	324.2003173828126	-451.9927062988281	1239.742065429688	307.7038879394532	-458.6475219726562	1227.13134765625	223.405975341797	-441.1517944335937	1290.329956054688	223.8262481689454	-425.3805236816406	1162.734375	43.38074111938484	-367.8263244628906	1338.842529296875	20.71026229858408	-438.32177734375	1375.236572265625	26.00691032409675	-329.7133178710938	
